PathFileType	4	(X/Y/Z)	C:/Users/beibeiliu/ov580/test_trc/User2\sequence.15_training_dense_left.trc
DataRate	CameraRate	NumFrames	NumMarkers	Units	OrigDataRate	OrigDataStartFrame	OrigNumFrames
120	120	9	19	mm	120	1	273
Frame#	Time	ThumbCMC			ThumbMCP			ThumbIP			ThumbTip			IndexMCP			IndexPIP			IndexTip			MiddleMCP			MiddlePIP			MiddleTip			RingMCP			RingPIP			RingTip			PinkyMCP			PinkyPIP			PinkyTip			BackHand1			BackHand2			BackHand3	
		X0	Y0	Z0	X1	Y1	Z1	X2	Y2	Z2	X3	Y3	Z3	X4	Y4	Z4	X5	Y5	Z5	X6	Y6	Z6	X7	Y7	Z7	X8	Y8	Z8	X9	Y9	Z9	X10	Y10	Z10	X11	Y11	Z11	X12	Y12	Z12	X13	Y13	Z13	X14	Y14	Z14	X15	Y15	Z15	X16	Y16	Z16	X17	Y17	Z17	X18	Y18	Z18	
0	0	-72.9145	-1.4315	73.4332	-56.3633	-11.331	50.0785	-39.6734	-20.5485	19.7209	-33.1384	-31.8919	-5.48817	-97.2954	0.793947	-7.13149	-92.7301	-1.93199	-33.8777	-91.4481	-3.15121	-66.8375	-122.86	4.10269	-13.7167	-127.492	1.48068	-45.0606	-133.714	-3.18127	-76.222	-146.867	0.294341	-6.28123	-153.873	-1.82893	-28.3864	-160.877	-6.44731	-56.7045	-169.487	-6.58073	16.5103	-177.711	-8.7122	-3.73508	-183.791	-4.23762	-28.7694	-140.367	14.1916	46.1555	-136.455	25.8462	81.9422	-104.349	20.4555	57.7711	
1	0.00833333	-77.2051	-2.82233	72.1071	-58.197	-10.8446	49.4342	-47.3347	-21.7361	20.6823	-36.2823	-33.0612	-3.97963	-100.557	0.323626	-7.81862	-97.0973	-1.56415	-37.3704	-96.1846	-4.85136	-67.2291	-124.959	3.33923	-15.405	-128.756	0.845376	-41.9316	-136.119	-4.35278	-75.6878	-153.568	0.437418	-2.49167	-155.665	-3.06322	-28.0908	-163.707	-7.71171	-61.1027	-168.969	-8.25758	21.2108	-182.717	-7.95644	-7.10577	-189.344	-3.92175	-25.4735	-144.964	12.7446	51.2174	-138.39	25.459	79.7604	-106.468	18.4241	56.8244	
2	0.0166667	-78.699	-3.13544	74.1828	-61.0121	-11.2483	52.5	-45.8609	-22.4104	17.4838	-39.1157	-33.3489	0.89489	-97.5899	-1.18447	-11.2087	-99.3676	-3.43803	-34.9627	-94.3029	-6.03104	-62.7722	-129.327	3.34476	-11.5962	-131.548	-0.39374	-42.5776	-135.328	-4.67384	-73.5524	-150.255	0.00125512	-0.596073	-159.064	-3.93284	-31.725	-166.698	-8.81894	-59.2292	-172.597	-6.87109	21.1979	-184.576	-8.65575	-3.91542	-190.768	-6.41417	-25.6659	-147.43	13.3488	51.1603	-139.342	23.874	80.1789	-109.409	18.6786	59.9888	
3	0.025	-76.9593	-2.38387	68.3715	-62.9134	-11.2684	48.657	-48.3483	-22.2602	18.7619	-38.4883	-33.19	1.52411	-102.183	-1.46518	-11.1558	-97.1528	-3.36586	-38.9103	-102.004	-6.99653	-62.4117	-128.835	2.54452	-10.7491	-134.4	-1.03583	-44.781	-140.87	-5.1412	-74.0179	-152.181	-0.341694	-3.35745	-161.812	-4.22208	-30.1005	-165.932	-8.71575	-54.6058	-169.414	-8.30447	21.816	-181.629	-7.73272	-4.19356	-192.349	-3.90919	-24.4991	-147.212	11.6896	48.159	-144.017	24.3873	79.2433	-109.339	18.5572	56.1439	
4	0.0333333	-81.6755	-2.66586	71.866	-62.8299	-11.1046	46.0943	-46.3073	-22.054	19.2241	-36.9595	-33.3111	-1.07001	-100.857	-0.650683	-8.2705	-100.355	-2.85137	-34.4738	-99.1113	-6.27377	-62.6856	-128.84	3.32159	-16.9175	-134.09	-2.13493	-47.4975	-140.644	-5.03327	-72.8939	-158.344	-1.3323	-1.79756	-162.712	-4.45335	-31.7457	-171.026	-10.1872	-58.3487	-176.487	-7.31462	20.8756	-181.695	-8.40772	-3.24548	-194.057	-3.8512	-24.8518	-148.973	13.6179	48.3358	-139.516	24.8743	76.5535	-111.211	17.9135	55.8377	
5	0.0416667	-82.3694	-2.68897	67.9526	-64.464	-10.8891	47.3809	-50.3155	-22.4753	16.3085	-38.1734	-34.1526	-2.10278	-101.21	-1.30617	-6.98987	-104.635	-4.09016	-38.2299	-101.302	-7.14221	-62.3346	-134.265	2.39292	-15.0184	-136.329	-1.38907	-44.3249	-146.074	-6.08395	-73.2076	-160.025	-1.2142	-1.31431	-167.114	-4.78818	-30.2347	-173.41	-9.71164	-54.4183	-175.118	-6.62792	21.2076	-182.816	-8.78108	-0.704912	-196.022	-6.08142	-23.519	-145.969	13.9683	51.5707	-142.328	24.8042	79.3592	-108.576	18.1867	56.8753	
6	0.05	-81.0855	-2.45316	69.152	-63.3443	-11.3828	47.3599	-52.1181	-24.4499	21.9224	-42.4243	-34.7929	0.363226	-106.66	-1.77075	-10.8505	-102.387	-4.9887	-33.1091	-105.136	-7.50829	-61.4093	-136.437	2.1609	-14.2923	-137.229	-1.62642	-40.8942	-145.669	-5.32988	-74.1854	-156.091	-1.39407	1.00079	-166.453	-4.87796	-26.4317	-171.82	-8.84575	-57.7914	-178.77	-7.16454	22.5597	-188.474	-8.3409	-3.97359	-197.624	-5.27973	-23.6617	-146.006	11.7676	53.1991	-144.523	25.2112	82.2361	-112.608	19.9157	59.3525	
7	0.0583333	-82.0344	-1.00051	74.0921	-65.0248	-10.9137	50.6489	-50.7362	-21.9195	17.5106	-40.4319	-33.2099	0.133457	-106.853	-0.444066	-9.35376	-103.568	-4.32661	-37.6246	-107.762	-5.97614	-61.1917	-135.867	2.77822	-13.8819	-139.84	-1.12018	-41.3783	-144.23	-5.96874	-76.818	-157.457	-0.242771	-0.0202517	-170.28	-4.09457	-26.047	-175.082	-8.56702	-53.2509	-180.144	-5.17749	20.4946	-187.548	-8.02445	-0.534656	-199.246	-4.54064	-26.2548	-152.52	13.3438	54.2131	-145.836	25.4855	80.6556	-110.982	21.0559	58.0583	
8	0.0666667	-84.407	-2.22812	71.707	-68.2666	-11.1911	48.1902	-56.484	-22.2087	19.9779	-45.2541	-32.8011	-3.36405	-108.448	-0.306967	-6.57552	-106.876	-3.19284	-37.7842	-104.857	-6.12415	-65.6026	-136.44	3.48546	-10.1109	-144.419	-0.591609	-44.0717	-148.041	-5.09968	-73.4202	-161.42	0.25127	-0.670518	-171.139	-3.39461	-25.2424	-174.118	-8.8606	-56.13	-180.938	-6.31487	25.499	-188.907	-8.24924	1.24189	-201.133	-4.1572	-22.7949	-151.771	12.2986	52.728	-147.539	25.3153	84.3066	-114.376	18.9845	60.258	
